<svg width="173" height="56" viewBox="0 0 173 56" fill="none" xmlns="http://www.w3.org/2000/svg">
<path fill-rule="evenodd" clip-rule="evenodd" d="M16.2165 38.4328C16.1344 38.2443 16.1633 38.0339 16.2668 37.8683L22.1604 28.4366L11.7038 28.4423C11.4351 28.4427 11.1667 28.2844 11.0467 28.005C10.9651 27.8153 10.9954 27.6035 11.0993 27.4372L16.1744 19.3153C16.684 18.4999 17.5974 18.0112 18.6128 18.0106L39.1352 18C39.4039 18 39.6713 18.16 39.7922 18.4379C39.8742 18.6262 39.8451 18.8364 39.7415 19.0022L33.8509 28.4291L44.3096 28.4241C44.4982 28.4242 44.685 28.5049 44.8236 28.6452C45.0385 28.8621 45.0644 29.1887 44.9141 29.4294L39.8419 37.5465C39.3286 38.3681 38.4082 38.8604 37.3853 38.8608L16.8735 38.8703C16.6049 38.8705 16.3372 38.7103 16.2165 38.4328Z" fill="#4E48E0"/>
<path fill-rule="evenodd" clip-rule="evenodd" d="M27.3276 38.8648L37.3851 38.8608C38.4081 38.8605 39.3285 38.3679 39.8417 37.5465L44.9139 29.4294C45.0642 29.1887 45.0385 28.8622 44.8236 28.6453C44.685 28.505 44.4981 28.4243 44.3096 28.4242L33.8486 28.429L27.3276 38.8648Z" fill="#4E48E0"/>
<path fill-rule="evenodd" clip-rule="evenodd" d="M22.1641 28.4305L16.2668 37.8683C16.1633 38.0339 16.1343 38.2443 16.2162 38.4327C16.337 38.7105 16.6048 38.8703 16.8734 38.8704L27.3297 38.8651L33.8533 28.4252L22.1641 28.4305Z" fill="#1C81C1"/>
<path fill-rule="evenodd" clip-rule="evenodd" d="M39.7415 19.0021C39.845 18.8365 39.8741 18.6263 39.7921 18.438C39.6713 18.16 39.4039 17.9999 39.1352 18.0002L18.6127 18.0107C17.5974 18.0111 16.6839 18.5 16.1744 19.3153L11.0993 27.4371C10.9954 27.6034 10.9651 27.8155 11.0465 28.0051C11.1667 28.2843 11.4351 28.4427 11.7039 28.4425L33.8503 28.4301L39.7415 19.0021Z" fill="#5CC4CD"/>
<path d="M62.792 27.36H57.2V24.96H67.28L60.968 33.6H66.68V36H56.36L62.792 27.36ZM73.7529 36.24C72.6329 36.24 71.6409 36 70.7769 35.52C69.9289 35.04 69.2729 34.368 68.8089 33.504C68.3449 32.64 68.1129 31.632 68.1129 30.48C68.1129 29.312 68.3449 28.296 68.8089 27.432C69.2889 26.568 69.9609 25.904 70.8249 25.44C71.6889 24.96 72.7049 24.72 73.8729 24.72C75.0409 24.72 76.0329 24.944 76.8489 25.392C77.6649 25.84 78.2889 26.488 78.7209 27.336C79.1689 28.168 79.3929 29.176 79.3929 30.36C79.3929 30.488 79.3849 30.624 79.3689 30.768C79.3689 30.912 79.3609 31.016 79.3449 31.08H69.6489V29.304H77.1369L76.3449 30.408C76.3929 30.312 76.4409 30.184 76.4889 30.024C76.5529 29.848 76.5849 29.704 76.5849 29.592C76.5849 29 76.4649 28.488 76.2249 28.056C76.0009 27.624 75.6809 27.288 75.2649 27.048C74.8649 26.808 74.3929 26.688 73.8489 26.688C73.1929 26.688 72.6329 26.832 72.1689 27.12C71.7049 27.408 71.3529 27.824 71.1129 28.368C70.8729 28.912 70.7449 29.584 70.7289 30.384C70.7289 31.184 70.8489 31.864 71.0889 32.424C71.3289 32.968 71.6809 33.384 72.1449 33.672C72.6249 33.96 73.2009 34.104 73.8729 34.104C74.5769 34.104 75.1929 33.96 75.7209 33.672C76.2489 33.384 76.6889 32.944 77.0409 32.352L79.2729 33.264C78.6969 34.256 77.9529 35 77.0409 35.496C76.1289 35.992 75.0329 36.24 73.7529 36.24ZM80.3309 24.96H86.5949V27.24H80.3309V24.96ZM82.1789 21.12H84.7469V36H82.1789V21.12ZM90.0146 32.568C90.0146 32.936 90.1026 33.256 90.2786 33.528C90.4546 33.784 90.6946 33.976 90.9986 34.104C91.3186 34.232 91.6786 34.296 92.0786 34.296C92.5906 34.296 93.0546 34.192 93.4706 33.984C93.9026 33.776 94.2466 33.472 94.5026 33.072C94.7746 32.656 94.9106 32.176 94.9106 31.632L95.2946 33.072C95.2946 33.776 95.0866 34.368 94.6706 34.848C94.2706 35.312 93.7586 35.664 93.1346 35.904C92.5266 36.128 91.9026 36.24 91.2626 36.24C90.5746 36.24 89.9346 36.104 89.3426 35.832C88.7506 35.56 88.2786 35.16 87.9266 34.632C87.5746 34.104 87.3986 33.464 87.3986 32.712C87.3986 31.64 87.7746 30.792 88.5266 30.168C89.2786 29.528 90.3426 29.208 91.7186 29.208C92.4546 29.208 93.0866 29.288 93.6146 29.448C94.1586 29.608 94.6066 29.8 94.9586 30.024C95.3106 30.232 95.5586 30.424 95.7026 30.6V31.92C95.2066 31.568 94.6786 31.312 94.1186 31.152C93.5586 30.992 92.9666 30.912 92.3426 30.912C91.7986 30.912 91.3586 30.984 91.0226 31.128C90.6866 31.256 90.4306 31.44 90.2546 31.68C90.0946 31.92 90.0146 32.216 90.0146 32.568ZM89.1986 27.84L88.1426 26.016C88.6386 25.712 89.2786 25.416 90.0626 25.128C90.8626 24.84 91.7746 24.696 92.7986 24.696C93.7106 24.696 94.5106 24.832 95.1986 25.104C95.9026 25.376 96.4546 25.768 96.8546 26.28C97.2546 26.776 97.4546 27.392 97.4546 28.128V36H94.9106V28.632C94.9106 28.28 94.8466 27.992 94.7186 27.768C94.6066 27.544 94.4466 27.36 94.2386 27.216C94.0306 27.072 93.7826 26.968 93.4946 26.904C93.2066 26.84 92.8946 26.808 92.5586 26.808C92.0466 26.808 91.5586 26.872 91.0946 27C90.6466 27.112 90.2546 27.256 89.9186 27.432C89.5986 27.592 89.3586 27.728 89.1986 27.84ZM102.996 17.28V36H100.38V17.28H102.996ZM112.14 30.48C112.14 31.68 111.892 32.712 111.396 33.576C110.9 34.44 110.244 35.104 109.428 35.568C108.612 36.016 107.724 36.24 106.764 36.24C105.852 36.24 105.036 36.008 104.316 35.544C103.612 35.08 103.06 34.416 102.66 33.552C102.26 32.688 102.06 31.664 102.06 30.48C102.06 29.28 102.26 28.256 102.66 27.408C103.06 26.544 103.612 25.88 104.316 25.416C105.036 24.952 105.852 24.72 106.764 24.72C107.724 24.72 108.612 24.952 109.428 25.416C110.244 25.864 110.9 26.52 111.396 27.384C111.892 28.232 112.14 29.264 112.14 30.48ZM109.452 30.48C109.452 29.744 109.3 29.112 108.996 28.584C108.692 28.056 108.284 27.656 107.772 27.384C107.276 27.112 106.724 26.976 106.116 26.976C105.62 26.976 105.132 27.112 104.652 27.384C104.172 27.656 103.772 28.056 103.452 28.584C103.148 29.096 102.996 29.728 102.996 30.48C102.996 31.232 103.148 31.872 103.452 32.4C103.772 32.912 104.172 33.304 104.652 33.576C105.132 33.848 105.62 33.984 106.116 33.984C106.724 33.984 107.276 33.848 107.772 33.576C108.284 33.304 108.692 32.904 108.996 32.376C109.3 31.848 109.452 31.216 109.452 30.48ZM113.769 30.48C113.769 29.344 114.025 28.344 114.537 27.48C115.065 26.616 115.777 25.944 116.673 25.464C117.569 24.968 118.585 24.72 119.721 24.72C120.857 24.72 121.865 24.968 122.745 25.464C123.641 25.944 124.353 26.616 124.881 27.48C125.409 28.344 125.673 29.344 125.673 30.48C125.673 31.6 125.409 32.6 124.881 33.48C124.353 34.344 123.641 35.024 122.745 35.52C121.865 36 120.857 36.24 119.721 36.24C118.585 36.24 117.569 36 116.673 35.52C115.777 35.024 115.065 34.344 114.537 33.48C114.025 32.6 113.769 31.6 113.769 30.48ZM116.433 30.48C116.433 31.168 116.577 31.776 116.865 32.304C117.153 32.816 117.545 33.224 118.041 33.528C118.537 33.816 119.097 33.96 119.721 33.96C120.329 33.96 120.881 33.816 121.377 33.528C121.889 33.224 122.289 32.816 122.577 32.304C122.865 31.776 123.009 31.168 123.009 30.48C123.009 29.792 122.865 29.184 122.577 28.656C122.289 28.128 121.889 27.72 121.377 27.432C120.881 27.144 120.329 27 119.721 27C119.097 27 118.537 27.144 118.041 27.432C117.545 27.72 117.153 28.128 116.865 28.656C116.577 29.184 116.433 29.792 116.433 30.48ZM127.293 30.48C127.293 29.344 127.549 28.344 128.061 27.48C128.589 26.616 129.301 25.944 130.197 25.464C131.093 24.968 132.109 24.72 133.245 24.72C134.381 24.72 135.389 24.968 136.269 25.464C137.165 25.944 137.877 26.616 138.405 27.48C138.933 28.344 139.197 29.344 139.197 30.48C139.197 31.6 138.933 32.6 138.405 33.48C137.877 34.344 137.165 35.024 136.269 35.52C135.389 36 134.381 36.24 133.245 36.24C132.109 36.24 131.093 36 130.197 35.52C129.301 35.024 128.589 34.344 128.061 33.48C127.549 32.6 127.293 31.6 127.293 30.48ZM129.957 30.48C129.957 31.168 130.101 31.776 130.389 32.304C130.677 32.816 131.069 33.224 131.565 33.528C132.061 33.816 132.621 33.96 133.245 33.96C133.853 33.96 134.405 33.816 134.901 33.528C135.413 33.224 135.813 32.816 136.101 32.304C136.389 31.776 136.533 31.168 136.533 30.48C136.533 29.792 136.389 29.184 136.101 28.656C135.813 28.128 135.413 27.72 134.901 27.432C134.405 27.144 133.853 27 133.245 27C132.621 27 132.061 27.144 131.565 27.432C131.069 27.72 130.677 28.128 130.389 28.656C130.101 29.184 129.957 29.792 129.957 30.48ZM141.56 17.28H144.104V36H141.56V17.28ZM148.16 24.96H151.328L146.576 29.52L151.808 36H148.664L143.384 29.52L148.16 24.96ZM154.043 32.376C154.395 32.76 154.747 33.096 155.099 33.384C155.467 33.656 155.835 33.864 156.203 34.008C156.571 34.136 156.939 34.2 157.307 34.2C157.771 34.2 158.131 34.096 158.387 33.888C158.659 33.68 158.795 33.392 158.795 33.024C158.795 32.704 158.691 32.432 158.483 32.208C158.275 31.968 157.987 31.768 157.619 31.608C157.251 31.432 156.819 31.256 156.323 31.08C155.827 30.888 155.331 30.664 154.835 30.408C154.355 30.136 153.955 29.784 153.635 29.352C153.331 28.92 153.179 28.376 153.179 27.72C153.179 27.048 153.347 26.488 153.683 26.04C154.035 25.592 154.499 25.264 155.075 25.056C155.667 24.832 156.299 24.72 156.971 24.72C157.579 24.72 158.147 24.808 158.675 24.984C159.219 25.16 159.707 25.392 160.139 25.68C160.571 25.968 160.939 26.296 161.243 26.664L159.803 28.2C159.435 27.768 158.995 27.416 158.483 27.144C157.971 26.872 157.443 26.736 156.899 26.736C156.531 26.736 156.227 26.816 155.987 26.976C155.747 27.136 155.627 27.368 155.627 27.672C155.627 27.928 155.731 28.16 155.939 28.368C156.163 28.56 156.451 28.736 156.803 28.896C157.171 29.056 157.579 29.224 158.027 29.4C158.635 29.64 159.195 29.904 159.707 30.192C160.219 30.48 160.627 30.832 160.931 31.248C161.251 31.664 161.411 32.208 161.411 32.88C161.411 33.92 161.051 34.76 160.331 35.4C159.627 36.024 158.667 36.336 157.451 36.336C156.699 36.336 156.003 36.224 155.363 36C154.739 35.76 154.187 35.456 153.707 35.088C153.243 34.704 152.851 34.304 152.531 33.888L154.043 32.376Z" fill="#3A3945"/>
</svg>
