<?xml version="1.0" standalone="no"?>
<!DOCTYPE svg PUBLIC "-//W3C//DTD SVG 20010904//EN"
 "http://www.w3.org/TR/2001/REC-SVG-20010904/DTD/svg10.dtd">
<svg version="1.0" xmlns="http://www.w3.org/2000/svg"
 width="72.000000pt" height="72.000000pt" viewBox="0 0 72.000000 72.000000"
 preserveAspectRatio="xMidYMid meet">
<metadata>
Created by potrace 1.14, written by Peter Selinger 2001-2017
</metadata>
<g transform="translate(0.000000,72.000000) scale(0.100000,-0.100000)"
fill="#000000" stroke="none">
<path d="M204 582 c5 -8 -3 -12 -24 -12 -32 0 -60 -19 -60 -40 0 -6 -5 -8 -10
-5 -5 3 -10 -3 -10 -14 0 -12 -4 -21 -8 -21 -5 0 -15 -12 -23 -27 -8 -16 -20
-34 -27 -41 -7 -8 -10 -18 -7 -23 4 -5 2 -9 -4 -9 -5 0 -9 -9 -8 -19 1 -15 4
-17 14 -9 10 8 13 7 13 -3 0 -11 2 -11 10 1 9 13 10 13 10 0 0 -13 1 -13 10 0
9 13 10 13 10 0 0 -13 1 -13 10 0 9 13 10 13 10 0 0 -13 1 -13 10 0 9 13 10
13 10 0 0 -13 1 -13 10 0 6 10 10 11 10 3 0 -7 5 -13 11 -13 5 0 8 4 5 8 -3 5
1 9 9 9 8 0 12 -4 9 -9 -3 -4 1 -8 10 -8 8 0 17 6 19 13 4 9 6 9 6 -1 1 -7 6
-10 11 -7 6 4 5 -5 -2 -19 -6 -14 -15 -26 -20 -26 -4 0 -8 -9 -8 -21 0 -11 -4
-17 -10 -14 -9 6 -15 -17 -10 -40 1 -5 -2 -7 -6 -3 -8 9 -54 -54 -54 -73 0 -6
7 -9 15 -6 8 4 17 2 21 -4 4 -7 10 -6 18 0 7 6 15 9 17 6 3 -2 60 -5 128 -6
96 -2 125 1 132 12 6 10 9 8 9 -11 0 -16 3 -21 8 -12 5 7 24 11 50 9 23 -2 42
0 42 5 0 4 7 5 16 1 10 -4 17 1 21 16 3 11 9 21 14 21 5 0 9 6 9 13 0 7 9 23
20 35 11 12 20 28 20 37 0 8 4 15 8 15 11 0 32 45 32 68 0 13 -2 14 -9 3 -6
-10 -10 -10 -16 -1 -6 9 -10 9 -16 -1 -6 -10 -9 -11 -9 -1 0 6 -7 12 -16 12
-9 0 -12 -5 -8 -12 6 -10 4 -10 -8 0 -12 9 -18 10 -23 2 -5 -8 -10 -8 -20 0
-8 6 -19 10 -27 9 -33 -4 -48 2 -48 21 0 11 4 20 9 20 5 0 14 13 21 30 7 16
16 27 21 24 8 -5 14 18 10 39 -1 5 3 6 9 2 5 -3 10 1 10 9 0 9 5 16 10 16 6 0
10 10 10 23 0 16 -3 18 -9 9 -7 -11 -9 -11 -13 0 -4 10 -36 13 -137 12 -91 -1
-131 2 -131 10 0 8 -2 8 -8 0 -8 -14 -70 -13 -91 0 -10 6 -12 5 -7 -2z"/>
</g>
</svg>
