<svg xmlns="http://www.w3.org/2000/svg" fill="none" viewBox="0 0 199 199"><path fill="#000" fill-rule="evenodd" d="M0 3.156a3.16 3.16 0 0 0 3.161 3.157 3.16 3.16 0 0 0 3.161-3.157A3.16 3.16 0 0 0 3.162 0 3.16 3.16 0 0 0 0 3.156ZM38.536 3.156a3.16 3.16 0 0 0 3.16 3.157 3.16 3.16 0 0 0 3.162-3.157A3.16 3.16 0 0 0 41.697 0a3.16 3.16 0 0 0-3.161 3.156ZM77.071 3.156a3.16 3.16 0 0 0 3.161 3.157 3.16 3.16 0 0 0 3.161-3.157A3.16 3.16 0 0 0 80.233 0a3.16 3.16 0 0 0-3.162 3.156ZM115.607 3.156a3.16 3.16 0 0 0 6.322 0 3.16 3.16 0 0 0-6.322 0ZM154.142 3.156a3.16 3.16 0 0 0 3.161 3.157 3.16 3.16 0 0 0 3.161-3.157A3.16 3.16 0 0 0 157.303 0a3.16 3.16 0 0 0-3.161 3.156ZM192.678 3.156a3.16 3.16 0 0 0 6.322 0 3.16 3.16 0 0 0-6.322 0ZM0 41.634a3.16 3.16 0 0 0 3.161 3.156 3.16 3.16 0 0 0 3.161-3.156 3.16 3.16 0 0 0-3.16-3.157A3.16 3.16 0 0 0 0 41.634ZM38.536 41.634a3.16 3.16 0 0 0 3.16 3.156 3.16 3.16 0 0 0 3.162-3.156 3.16 3.16 0 0 0-3.161-3.157 3.16 3.16 0 0 0-3.161 3.157ZM77.071 41.634a3.16 3.16 0 0 0 3.161 3.156 3.16 3.16 0 0 0 3.161-3.156 3.16 3.16 0 0 0-3.16-3.157 3.16 3.16 0 0 0-3.162 3.157ZM115.607 41.634a3.16 3.16 0 0 0 6.322 0 3.16 3.16 0 0 0-6.322 0ZM154.142 41.634a3.16 3.16 0 0 0 3.161 3.156 3.16 3.16 0 0 0 3.161-3.156 3.16 3.16 0 0 0-6.322 0ZM192.678 41.634a3.16 3.16 0 0 0 6.322 0 3.16 3.16 0 0 0-6.322 0ZM0 80.111a3.16 3.16 0 0 0 3.161 3.156 3.16 3.16 0 0 0 3.161-3.156 3.16 3.16 0 0 0-3.16-3.156A3.16 3.16 0 0 0 0 80.11ZM38.536 80.111a3.16 3.16 0 0 0 3.16 3.156 3.16 3.16 0 0 0 3.162-3.156 3.16 3.16 0 0 0-3.161-3.156 3.16 3.16 0 0 0-3.161 3.156ZM77.071 80.111a3.16 3.16 0 0 0 3.161 3.156 3.16 3.16 0 0 0 3.161-3.156 3.16 3.16 0 0 0-3.16-3.156 3.16 3.16 0 0 0-3.162 3.156ZM115.607 80.111a3.16 3.16 0 0 0 6.322 0 3.16 3.16 0 0 0-6.322 0ZM154.142 80.111a3.16 3.16 0 0 0 6.322 0 3.16 3.16 0 0 0-3.161-3.156 3.16 3.16 0 0 0-3.161 3.156ZM192.678 80.111a3.16 3.16 0 0 0 6.322 0 3.16 3.16 0 0 0-6.322 0ZM191.775 118.889a3.16 3.16 0 0 0 3.161 3.156 3.16 3.16 0 0 0 3.161-3.156 3.16 3.16 0 0 0-3.161-3.156 3.16 3.16 0 0 0-3.161 3.156ZM0 118.889a3.16 3.16 0 0 0 3.161 3.156 3.16 3.16 0 0 0 3.161-3.156 3.16 3.16 0 0 0-3.16-3.156A3.16 3.16 0 0 0 0 118.889ZM38.536 118.889a3.16 3.16 0 0 0 3.16 3.156 3.16 3.16 0 0 0 3.162-3.156 3.16 3.16 0 0 0-3.161-3.156 3.16 3.16 0 0 0-3.161 3.156ZM77.071 118.889a3.16 3.16 0 0 0 3.161 3.156 3.16 3.16 0 0 0 3.161-3.156 3.16 3.16 0 0 0-3.16-3.156 3.16 3.16 0 0 0-3.162 3.156ZM115.607 118.889a3.16 3.16 0 0 0 3.161 3.156 3.16 3.16 0 0 0 3.161-3.156 3.16 3.16 0 0 0-3.161-3.156 3.16 3.16 0 0 0-3.161 3.156ZM153.841 118.889a3.16 3.16 0 0 0 3.161 3.156 3.16 3.16 0 0 0 3.161-3.156 3.16 3.16 0 0 0-3.161-3.156 3.16 3.16 0 0 0-3.161 3.156ZM37.933 156.765a3.16 3.16 0 0 0 3.162 3.156 3.16 3.16 0 0 0 3.16-3.156 3.16 3.16 0 0 0-3.16-3.156 3.16 3.16 0 0 0-3.162 3.156ZM77.071 157.366a3.16 3.16 0 0 0 3.161 3.157 3.16 3.16 0 0 0 3.161-3.157 3.16 3.16 0 0 0-3.16-3.156 3.16 3.16 0 0 0-3.162 3.156ZM115.607 157.366a3.16 3.16 0 0 0 6.322 0 3.16 3.16 0 0 0-3.161-3.156 3.16 3.16 0 0 0-3.161 3.156ZM154.142 157.366a3.16 3.16 0 0 0 6.322 0 3.16 3.16 0 0 0-3.161-3.156 3.16 3.16 0 0 0-3.161 3.156ZM192.678 157.366a3.16 3.16 0 0 0 6.322 0 3.16 3.16 0 0 0-3.161-3.156 3.16 3.16 0 0 0-3.161 3.156ZM0 195.844A3.16 3.16 0 0 0 3.161 199a3.16 3.16 0 0 0 3.161-3.156 3.16 3.16 0 0 0-3.16-3.157A3.16 3.16 0 0 0 0 195.844ZM0 156.765a3.16 3.16 0 0 0 3.161 3.156 3.16 3.16 0 0 0 3.161-3.156 3.16 3.16 0 0 0-3.16-3.156A3.16 3.16 0 0 0 0 156.765ZM38.536 195.844a3.16 3.16 0 0 0 3.16 3.156 3.16 3.16 0 0 0 3.162-3.156 3.16 3.16 0 0 0-3.161-3.157 3.16 3.16 0 0 0-3.161 3.157ZM77.071 195.844A3.16 3.16 0 0 0 80.232 199a3.16 3.16 0 0 0 3.161-3.156 3.16 3.16 0 0 0-3.16-3.157 3.16 3.16 0 0 0-3.162 3.157ZM115.607 195.844a3.16 3.16 0 0 0 3.161 3.156 3.16 3.16 0 0 0 3.161-3.156 3.16 3.16 0 0 0-6.322 0ZM154.142 195.844a3.16 3.16 0 0 0 3.161 3.156 3.16 3.16 0 0 0 3.161-3.156 3.16 3.16 0 0 0-6.322 0ZM192.678 195.844a3.16 3.16 0 0 0 3.161 3.156 3.16 3.16 0 0 0 3.161-3.156 3.16 3.16 0 0 0-6.322 0Z" clip-rule="evenodd"/></svg>
