<svg width="24" height="25" viewBox="0 0 24 25" fill="none" xmlns="http://www.w3.org/2000/svg">
<path d="M20 0.333008H4C2.93913 0.333008 1.92172 0.754435 1.17157 1.50458C0.421427 2.25473 0 3.27214 0 4.33301V20.333C0 21.3939 0.421427 22.4113 1.17157 23.1614C1.92172 23.9116 2.93913 24.333 4 24.333H20C21.0609 24.333 22.0783 23.9116 22.8284 23.1614C23.5786 22.4113 24 21.3939 24 20.333V4.33301C24 3.27214 23.5786 2.25473 22.8284 1.50458C22.0783 0.754435 21.0609 0.333008 20 0.333008ZM22 20.333C22 20.8634 21.7893 21.3721 21.4142 21.7472C21.0391 22.1223 20.5304 22.333 20 22.333H4C3.46957 22.333 2.96086 22.1223 2.58579 21.7472C2.21071 21.3721 2 20.8634 2 20.333V4.33301C2 3.80257 2.21071 3.29387 2.58579 2.91879C2.96086 2.54372 3.46957 2.33301 4 2.33301H20C20.5304 2.33301 21.0391 2.54372 21.4142 2.91879C21.7893 3.29387 22 3.80257 22 4.33301V20.333Z" fill="black"/>
<path d="M12 6.33301C10.8133 6.33301 9.65327 6.6849 8.66658 7.34419C7.67988 8.00348 6.91085 8.94055 6.45672 10.0369C6.0026 11.1333 5.88378 12.3397 6.11529 13.5035C6.3468 14.6674 6.91824 15.7365 7.75736 16.5756C8.59647 17.4148 9.66557 17.9862 10.8295 18.2177C11.9933 18.4492 13.1997 18.3304 14.2961 17.8763C15.3925 17.4222 16.3295 16.6531 16.9888 15.6664C17.6481 14.6797 18 13.5197 18 12.333C18 10.7417 17.3679 9.21559 16.2426 8.09037C15.1174 6.96515 13.5913 6.33301 12 6.33301ZM12 16.333C11.2089 16.333 10.4355 16.0984 9.77772 15.6589C9.11992 15.2194 8.60723 14.5946 8.30448 13.8637C8.00173 13.1328 7.92252 12.3286 8.07686 11.5526C8.2312 10.7767 8.61216 10.064 9.17157 9.50458C9.73098 8.94517 10.4437 8.56421 11.2196 8.40987C11.9956 8.25553 12.7998 8.33474 13.5307 8.63749C14.2616 8.94024 14.8864 9.45293 15.3259 10.1107C15.7654 10.7685 16 11.5419 16 12.333C16 13.3939 15.5786 14.4113 14.8284 15.1614C14.0783 15.9116 13.0609 16.333 12 16.333Z" fill="black"/>
<path d="M18.5 7.33301C19.3284 7.33301 20 6.66144 20 5.83301C20 5.00458 19.3284 4.33301 18.5 4.33301C17.6716 4.33301 17 5.00458 17 5.83301C17 6.66144 17.6716 7.33301 18.5 7.33301Z" fill="black"/>
</svg>
