<svg xmlns="http://www.w3.org/2000/svg" width="106" height="14" fill="none"><path fill="#4F46E5" d="M4.769 2.272C5.613.757 6.035 0 6.667 0c.631 0 1.053.757 1.898 2.272l.218.392c.24.43.36.646.547.788.187.142.42.195.887.3l.424.096c1.64.371 2.46.557 2.655 1.184.194.627-.364 1.28-1.482 2.588l-.29.338c-.317.371-.476.557-.548.787-.071.23-.047.478 0 .973l.045.451c.168 1.745.253 2.617-.258 3.004-.51.388-1.278.034-2.813-.672l-.398-.183c-.436-.201-.654-.301-.885-.301-.232 0-.45.1-.886.301l-.397.183c-1.535.706-2.303 1.06-2.813.673-.512-.388-.427-1.26-.258-3.005l.044-.45c.048-.496.072-.744 0-.974-.07-.23-.23-.416-.548-.786L1.52 7.62C.402 6.313-.157 5.66.038 5.032c.195-.627 1.015-.813 2.655-1.184l.424-.096c.466-.105.7-.158.886-.3.187-.142.307-.357.547-.788l.219-.392ZM28.102 2.272C28.947.757 29.37 0 30 0c.632 0 1.054.757 1.898 2.272l.22.392c.24.43.36.646.546.788.186.142.42.195.886.3l.424.096c1.64.371 2.46.557 2.655 1.184.195.627-.364 1.28-1.482 2.588l-.29.338c-.317.371-.476.557-.547.787-.072.23-.048.478 0 .973l.044.451c.17 1.745.254 2.617-.257 3.004-.51.388-1.279.034-2.813-.672l-.398-.183c-.436-.201-.654-.301-.886-.301-.23 0-.449.1-.886.301l-.396.183c-1.536.706-2.304 1.06-2.814.673-.51-.388-.426-1.26-.258-3.005l.044-.45c.048-.496.072-.744 0-.974-.07-.23-.23-.416-.547-.786l-.29-.339c-1.117-1.307-1.676-1.96-1.481-2.588.195-.627 1.015-.813 2.655-1.184l.424-.096c.466-.105.699-.158.886-.3.187-.142.307-.357.547-.788l.218-.392ZM51.436 2.272C52.281.757 52.703 0 53.334 0s1.053.757 1.898 2.272l.219.392c.24.43.36.646.546.788.187.142.42.195.887.3l.424.096c1.64.371 2.46.557 2.655 1.184.194.627-.364 1.28-1.482 2.588l-.29.338c-.317.371-.476.557-.548.787-.07.23-.047.478.001.973l.044.451c.169 1.745.253 2.617-.257 3.004-.51.388-1.279.034-2.814-.672l-.398-.183c-.436-.201-.654-.301-.885-.301-.231 0-.45.1-.886.301l-.397.183c-1.535.706-2.303 1.06-2.813.673-.511-.388-.427-1.26-.258-3.005l.044-.45c.048-.496.072-.744 0-.974-.07-.23-.23-.416-.547-.786l-.29-.339c-1.118-1.307-1.676-1.96-1.482-2.588.196-.627 1.016-.813 2.656-1.184l.424-.096c.466-.105.698-.158.886-.3.186-.142.306-.357.546-.788l.22-.392ZM74.77 2.272C75.615.757 76.037 0 76.668 0s1.053.757 1.898 2.272l.218.392c.24.43.36.646.547.788.187.142.42.195.887.3l.424.096c1.64.371 2.46.557 2.654 1.184.195.627-.364 1.28-1.482 2.588l-.289.338c-.317.371-.477.557-.548.787-.071.23-.047.478 0 .973l.045.451c.168 1.745.253 2.617-.258 3.004-.51.388-1.278.034-2.813-.672l-.398-.183c-.436-.201-.654-.301-.885-.301-.232 0-.45.1-.886.301l-.397.183c-1.535.706-2.303 1.06-2.813.673-.511-.388-.427-1.26-.258-3.005l.044-.45c.048-.496.072-.744 0-.974-.07-.23-.23-.416-.547-.786l-.29-.339c-1.118-1.307-1.677-1.96-1.482-2.588.195-.627 1.016-.813 2.656-1.184l.424-.096c.466-.105.698-.158.885-.3.187-.142.307-.357.547-.788l.219-.392Z"/><path fill="#4F46E5" fill-rule="evenodd" d="m100.954 2.467.11.197c.24.43.36.646.546.788.187.142.42.195.887.3l1.597.374c.492.13.855.256 1.104.424a.5.5 0 0 1 .095.168c.039.098.079.199.283.314.194.627-.364 1.28-1.482 2.588l-.293.341c-.315.37-.474.555-.545.784-.071.23-.047.478.001.973l.044.455c.169 1.742.253 2.613-.257 3-.479.364-1.183.076-2.533-.543l-.278-.128-.003-.001-.398-.183c-.436-.201-.654-.301-.885-.301-.231 0-.45.1-.886.301l-.397.183c-1.535.706-2.303 1.06-2.813.673-.511-.388-.427-1.259-.258-3.001l.044-.454c.048-.496.072-.744 0-.974-.07-.23-.23-.415-.547-.785l-.29-.34c-1.118-1.307-1.676-1.96-1.482-2.588.196-.627 1.016-.813 2.656-1.184l.424-.096c.466-.105.698-.158.886-.3.186-.142.306-.357.546-.788l.22-.394C97.894.757 98.316 0 98.947 0c.609 0 1.124.886 1.918 2.309l.087.156.002.002Zm1.43 9.974.004-.009a.369.369 0 0 0-.004.009Zm.156-.108h-.008.012-.004Zm-9.26-7.068.001.012-.002-.012Zm2.07 7.068h.01-.01Zm6.946-.047c-.356-.102-.848-.326-1.647-.694l-.398-.182c-.339-.158-.843-.393-1.304-.393V1.083c.022.025.047.056.075.093.235.307.51.797.95 1.583l.218.392.049.088c.186.337.406.735.766 1.009.367.28.812.378 1.176.458l.096.021.423.096c.854.194 1.378.315 1.723.451.074.03.127.054.163.074a1.576 1.576 0 0 1-.105.19c-.207.328-.567.754-1.147 1.432l-.29.338-.065.076c-.25.29-.543.631-.678 1.064-.133.43-.088.877-.049 1.267l.01.1.044.45c.087.905.14 1.474.122 1.87a1.905 1.905 0 0 1-.015.18 1.81 1.81 0 0 1-.117-.029Z" clip-rule="evenodd"/><path fill="#4F46E5" d="M105.293 4.718c.039.098.079.199.283.314a.891.891 0 0 0-.378-.482.5.5 0 0 1 .095.168Z"/></svg>
