<svg xmlns="http://www.w3.org/2000/svg" width="105" height="13" fill="none"><path fill="#4F46E5" d="M4.741 2.215C5.581.738 6.001 0 6.628 0c.628 0 1.047.738 1.887 2.215l.217.382c.24.42.358.63.544.769.186.138.418.19.882.292l.421.094c1.63.362 2.445.543 2.64 1.154.193.611-.363 1.249-1.474 2.524l-.288.33c-.315.361-.474.542-.545.766-.07.224-.047.466.001.95l.044.44c.167 1.7.252 2.55-.256 2.928-.508.378-1.271.033-2.797-.656l-.396-.178c-.433-.196-.65-.294-.88-.294-.23 0-.447.098-.88.294l-.395.178c-1.527.69-2.29 1.034-2.797.657-.508-.379-.424-1.229-.257-2.93l.044-.44c.048-.483.072-.725 0-.948-.07-.225-.229-.406-.544-.767l-.288-.33C.4 6.156-.156 5.518.038 4.906c.194-.611 1.01-.793 2.64-1.154l.421-.094c.464-.102.695-.154.881-.292.186-.139.305-.349.544-.769l.217-.382ZM27.94 2.215C28.778.738 29.197 0 29.825 0c.628 0 1.047.738 1.887 2.215l.217.382c.24.42.358.63.544.769.186.138.418.19.882.292l.421.094c1.63.362 2.445.543 2.64 1.154.193.611-.363 1.249-1.474 2.524l-.288.33c-.315.361-.474.542-.545.766-.07.224-.047.466.001.95l.044.44c.167 1.7.252 2.55-.256 2.928-.508.378-1.271.033-2.797-.656l-.396-.178c-.433-.196-.65-.294-.88-.294-.23 0-.447.098-.88.294l-.395.178c-1.526.69-2.29 1.034-2.797.657-.509-.379-.424-1.229-.257-2.93l.044-.44c.048-.483.072-.725 0-.948-.07-.225-.229-.406-.544-.767l-.288-.33c-1.111-1.274-1.667-1.912-1.473-2.524.194-.611 1.01-.793 2.64-1.154l.421-.094c.464-.102.695-.154.881-.292.186-.139.305-.349.544-.769l.217-.382ZM51.137 2.215C51.977.738 52.397 0 53.024 0c.628 0 1.047.738 1.887 2.215l.218.382c.238.42.357.63.543.769.186.138.418.19.882.292l.421.094c1.63.362 2.445.543 2.64 1.154.193.611-.363 1.249-1.474 2.524l-.288.33c-.315.361-.474.542-.545.766-.07.224-.047.466.001.95l.044.44c.167 1.7.252 2.55-.256 2.928-.508.378-1.271.033-2.797-.656l-.396-.178c-.433-.196-.65-.294-.88-.294-.23 0-.447.098-.88.294l-.395.178c-1.527.69-2.29 1.034-2.797.657-.508-.379-.424-1.229-.257-2.93l.044-.44c.048-.483.072-.725 0-.948-.07-.225-.228-.406-.544-.767l-.288-.33c-1.111-1.274-1.667-1.912-1.473-2.524.194-.611 1.01-.793 2.64-1.154l.421-.094c.464-.102.695-.154.881-.292.186-.139.305-.349.544-.769l.217-.382ZM74.335 2.215C75.175.738 75.595 0 76.222 0c.628 0 1.047.738 1.887 2.215l.218.382c.238.42.358.63.543.769.186.138.418.19.882.292l.421.094c1.63.362 2.445.543 2.64 1.154.193.611-.362 1.249-1.474 2.524l-.288.33c-.315.361-.474.542-.544.766-.071.224-.047.466 0 .95l.044.44c.168 1.7.252 2.55-.256 2.928-.508.378-1.271.033-2.797-.656l-.395-.178c-.434-.196-.65-.294-.88-.294-.23 0-.447.098-.882.294l-.394.178c-1.526.69-2.29 1.034-2.797.657-.508-.379-.424-1.229-.256-2.93l.043-.44c.048-.483.072-.725 0-.948-.07-.225-.228-.406-.544-.767l-.287-.33c-1.112-1.274-1.667-1.912-1.474-2.524.194-.611 1.01-.793 2.64-1.154l.422-.094c.463-.102.694-.154.88-.292.186-.139.305-.349.544-.769l.217-.382Z"/><path fill="#4F46E5" fill-rule="evenodd" d="m100.367 2.405.109.192c.239.42.358.63.544.769.185.138.417.19.881.292l1.588.365c.489.126.85.25 1.098.414.051.055.072.109.094.163.039.096.079.194.281.306.194.611-.362 1.249-1.473 2.524l-.291.332c-.313.36-.471.541-.542.764-.071.224-.047.466.001.95l.044.443c.167 1.698.251 2.548-.256 2.925-.476.354-1.176.074-2.518-.53l-.277-.125h-.002l-.396-.179c-.433-.196-.65-.294-.88-.294-.23 0-.447.098-.88.294l-.395.178c-1.527.69-2.29 1.034-2.797.657-.508-.378-.425-1.228-.257-2.926l.044-.443c.048-.484.072-.726 0-.95-.07-.223-.228-.405-.544-.765l-.288-.331c-1.111-1.274-1.667-1.912-1.473-2.524.194-.611 1.01-.793 2.64-1.154l.421-.094c.463-.102.695-.154.881-.292.186-.139.305-.349.543-.769l.22-.384C97.324.738 97.744 0 98.371 0c.605 0 1.118.864 1.907 2.25l.087.153.001.002Zm1.422 9.725.004-.009-.004.009Zm.155-.105h-.007.011-.004Zm-9.207-6.892s.002.005.002.012l-.002-.012Zm2.059 6.891.01.001h-.01Zm6.906-.045c-.354-.1-.844-.318-1.638-.676l-.395-.178c-.337-.155-.838-.384-1.297-.384V1.056l.075.09c.233.3.507.777.944 1.544l.217.382.049.086c.184.328.403.717.761.984.365.272.807.368 1.17.447l.094.02.421.094c.849.188 1.37.307 1.713.44.074.028.126.052.162.071a1.397 1.397 0 0 1-.105.186c-.205.32-.563.734-1.14 1.396l-.288.33-.064.073c-.249.284-.54.616-.674 1.038-.133.42-.088.855-.05 1.235l.01.098.044.439c.087.882.139 1.437.122 1.823a2.207 2.207 0 0 1-.015.176 1.948 1.948 0 0 1-.116-.029Z" clip-rule="evenodd"/><path fill="#4F46E5" d="M104.681 4.6c.039.096.079.194.281.306a.867.867 0 0 0-.375-.47c.051.056.072.11.094.164Z"/></svg>
