<svg width="22" height="25" viewBox="0 0 22 25" fill="none" xmlns="http://www.w3.org/2000/svg">
<path d="M21.4996 10.175C19.4354 10.18 17.4218 9.53622 15.7433 8.33472V16.7143C15.7427 18.2663 15.2684 19.7812 14.3836 21.0563C13.4989 22.3314 12.2459 23.306 10.7923 23.8498C9.33872 24.3936 7.75374 24.4807 6.24931 24.0994C4.74489 23.7181 3.39273 22.8866 2.37364 21.716C1.35455 20.5455 0.717113 19.0917 0.546552 17.5491C0.375991 16.0065 0.680441 14.4486 1.41919 13.0837C2.15794 11.7188 3.29578 10.612 4.68057 9.91123C6.06535 9.21047 7.63107 8.94917 9.16836 9.16228V13.3769C8.46489 13.1557 7.70949 13.1623 7.01004 13.396C6.31058 13.6296 5.70284 14.0783 5.27361 14.678C4.84437 15.2776 4.61559 15.9976 4.61993 16.735C4.62427 17.4725 4.86152 18.1897 5.29779 18.7842C5.73406 19.3788 6.34705 19.8203 7.04921 20.0457C7.75136 20.2711 8.50679 20.2689 9.20761 20.0393C9.90842 19.8098 10.5188 19.3646 10.9515 18.7675C11.3843 18.1704 11.6173 17.4518 11.6173 16.7143V0.333008H15.7433C15.7404 0.681443 15.7696 1.0294 15.8305 1.37249C15.9739 2.13838 16.272 2.86697 16.7066 3.51369C17.1412 4.16041 17.7032 4.71167 18.3582 5.13376C19.29 5.74989 20.3825 6.07829 21.4996 6.07806V10.175Z" fill="black"/>
</svg>
